<svg width="186" height="49" viewBox="0 0 186 49" fill="none" xmlns="http://www.w3.org/2000/svg">
<path d="M48.9471 27.822C47.248 39.7008 36.9755 49 24.5856 49C11.0074 49 0 38.031 0 24.5C0 10.969 11.0074 0 24.5856 0C37.1769 0 47.5574 9.43235 49 21.5932H46.1989C40.6617 21.2282 36.8471 18.734 34.9258 16.7828C34.6287 16.3882 34.3094 16.0111 33.9698 15.6534C33.9661 15.6495 33.9624 15.6457 33.9587 15.6418L34.4199 18.6864C34.4199 19.2678 34.2365 20.497 33.5031 20.7627C32.5864 21.0949 31.8952 20.9495 30.8362 19.6831C30.0859 18.7858 28.7275 14.6796 28.0385 12.0921C26.9394 11.789 25.7815 11.6271 24.5856 11.6271C17.4513 11.6271 11.6678 17.3905 11.6678 24.5C11.6678 31.6095 17.4513 37.3729 24.5856 37.3729C25.76 37.3729 26.8978 37.2167 27.9792 36.9241C28.6468 34.3567 30.0637 30.0318 30.8362 29.1081C31.8952 27.8416 32.5864 27.6962 33.5031 28.0284C34.2365 28.2942 34.4199 29.5233 34.4199 30.1047L33.9211 33.3976C33.9768 33.3396 34.0319 33.281 34.0865 33.222C34.52 32.912 34.9377 32.5487 35.3851 32.1595C37.5354 30.2889 40.3711 27.822 48.9471 27.822Z" fill="url(#paint0_linear_162_1012)"/>
<path d="M63.68 36.64C62.1227 36.64 60.6613 36.352 59.296 35.776C57.952 35.1787 56.768 34.3573 55.744 33.312C54.72 32.2667 53.9093 31.0613 53.312 29.696C52.736 28.3093 52.448 26.8373 52.448 25.28C52.448 23.6587 52.7253 22.144 53.28 20.736C53.856 19.328 54.6453 18.0907 55.648 17.024C56.6507 15.9573 57.8133 15.1253 59.136 14.528C60.48 13.9307 61.9093 13.632 63.424 13.632C64.9813 13.632 66.432 13.9307 67.776 14.528C69.1413 15.104 70.336 15.9147 71.36 16.96C72.384 18.0053 73.184 19.232 73.76 20.64C74.336 22.0267 74.624 23.5307 74.624 25.152C74.624 26.7307 74.336 28.2133 73.76 29.6C73.2053 30.9867 72.416 32.2133 71.392 33.28C70.3893 34.3253 69.2267 35.1467 67.904 35.744C66.6027 36.3413 65.1947 36.64 63.68 36.64ZM63.52 30.784C64.2453 30.784 64.928 30.6453 65.568 30.368C66.208 30.0693 66.7627 29.6747 67.232 29.184C67.7227 28.672 68.096 28.0747 68.352 27.392C68.6293 26.688 68.768 25.9413 68.768 25.152C68.768 24.3627 68.6293 23.6267 68.352 22.944C68.0747 22.2613 67.6907 21.664 67.2 21.152C66.7307 20.6187 66.176 20.2133 65.536 19.936C64.9173 19.6373 64.256 19.488 63.552 19.488C62.8267 19.488 62.144 19.6373 61.504 19.936C60.8853 20.2133 60.3307 20.6187 59.84 21.152C59.3707 21.664 58.9973 22.2613 58.72 22.944C58.4427 23.6267 58.304 24.3627 58.304 25.152C58.304 25.92 58.4427 26.6453 58.72 27.328C58.9973 28.0107 59.3707 28.6187 59.84 29.152C60.3307 29.664 60.8853 30.0693 61.504 30.368C62.144 30.6453 62.816 30.784 63.52 30.784ZM78.8385 36.288C77.8998 36.288 77.2278 36.1493 76.8225 35.872C76.4172 35.5733 76.1718 35.2 76.0865 34.752C76.0012 34.304 75.9585 33.8347 75.9585 33.344V16.736C75.9585 16.2667 76.0012 15.8187 76.0865 15.392C76.1718 14.9653 76.4172 14.6133 76.8225 14.336C77.2492 14.0587 77.9425 13.92 78.9025 13.92C79.8412 13.92 80.4812 14.0373 80.8225 14.272C81.1638 14.5067 81.4732 14.8053 81.7505 15.168L89.7505 25.92V16.736C89.7505 16.2667 89.7932 15.8187 89.8785 15.392C89.9852 14.9653 90.2412 14.6133 90.6465 14.336C91.0518 14.0587 91.7345 13.92 92.6945 13.92C93.6758 13.92 94.3585 14.0693 94.7425 14.368C95.1478 14.6453 95.3932 15.008 95.4785 15.456C95.5638 15.904 95.6065 16.3733 95.6065 16.864V33.376C95.6065 33.8453 95.5638 34.304 95.4785 34.752C95.3932 35.2 95.1478 35.5733 94.7425 35.872C94.3372 36.1493 93.6438 36.288 92.6625 36.288C91.9372 36.288 91.3825 36.224 90.9985 36.096C90.6358 35.9893 90.3265 35.7653 90.0705 35.424L81.7825 24.48V33.376C81.7825 33.8453 81.7398 34.304 81.6545 34.752C81.5692 35.2 81.3238 35.5733 80.9185 35.872C80.5132 36.1493 79.8198 36.288 78.8385 36.288ZM114.068 13.856C114.473 13.856 114.857 13.888 115.22 13.952C115.583 14.016 115.881 14.2187 116.116 14.56C116.372 14.9013 116.5 15.488 116.5 16.32C116.5 17.1307 116.372 17.7173 116.116 18.08C115.881 18.4213 115.572 18.624 115.188 18.688C114.825 18.752 114.441 18.784 114.036 18.784H109.62V33.44C109.62 33.9093 109.577 34.368 109.492 34.816C109.407 35.2427 109.161 35.5947 108.756 35.872C108.372 36.1493 107.689 36.288 106.708 36.288C105.769 36.288 105.097 36.1493 104.692 35.872C104.287 35.5733 104.041 35.2107 103.956 34.784C103.892 34.336 103.86 33.8773 103.86 33.408V18.784H99.412C99.028 18.784 98.644 18.752 98.26 18.688C97.8973 18.6027 97.588 18.3893 97.332 18.048C97.0973 17.7067 96.98 17.12 96.98 16.288C96.98 15.4773 97.0973 14.9013 97.332 14.56C97.588 14.2187 97.908 14.016 98.292 13.952C98.676 13.888 99.06 13.856 99.444 13.856H114.068ZM120.777 36.288C119.817 36.288 119.134 36.1493 118.729 35.872C118.323 35.5733 118.078 35.2 117.993 34.752C117.907 34.2827 117.865 33.8133 117.865 33.344V16.8C117.865 16.3307 117.907 15.872 117.993 15.424C118.078 14.976 118.323 14.6133 118.729 14.336C119.134 14.0373 119.827 13.888 120.809 13.888C121.79 13.888 122.473 14.0373 122.857 14.336C123.262 14.6133 123.507 14.976 123.593 15.424C123.678 15.872 123.721 16.3413 123.721 16.832V33.376C123.721 33.8453 123.678 34.304 123.593 34.752C123.507 35.2 123.262 35.5733 122.857 35.872C122.451 36.1493 121.758 36.288 120.777 36.288ZM128.753 36.288C127.793 36.288 127.11 36.1493 126.705 35.872C126.3 35.5733 126.054 35.2 125.969 34.752C125.884 34.2827 125.841 33.8133 125.841 33.344V16.8C125.841 15.6907 126.054 14.9333 126.481 14.528C126.929 14.1013 127.718 13.888 128.849 13.888H140.561C141.052 13.888 141.51 13.9307 141.937 14.016C142.385 14.1013 142.748 14.3467 143.025 14.752C143.324 15.1573 143.473 15.8507 143.473 16.832C143.473 17.792 143.324 18.4747 143.025 18.88C142.748 19.2853 142.385 19.5307 141.937 19.616C141.489 19.7013 141.02 19.744 140.529 19.744H131.697V22.592H137.617C138.108 22.592 138.545 22.6347 138.929 22.72C139.313 22.784 139.622 22.9867 139.857 23.328C140.092 23.6693 140.209 24.2667 140.209 25.12C140.209 25.9307 140.092 26.5173 139.857 26.88C139.622 27.2213 139.302 27.424 138.897 27.488C138.492 27.552 138.044 27.584 137.553 27.584H131.697V30.432H140.561C141.052 30.432 141.51 30.4747 141.937 30.56C142.385 30.6453 142.748 30.8907 143.025 31.296C143.324 31.7013 143.473 32.3947 143.473 33.376C143.473 34.336 143.324 35.0187 143.025 35.424C142.748 35.8293 142.385 36.0747 141.937 36.16C141.489 36.2453 141.02 36.288 140.529 36.288H128.753ZM147.682 36.288C146.744 36.288 146.072 36.1493 145.666 35.872C145.261 35.5733 145.016 35.2 144.93 34.752C144.845 34.304 144.802 33.8347 144.802 33.344V16.736C144.802 16.2667 144.845 15.8187 144.93 15.392C145.016 14.9653 145.261 14.6133 145.666 14.336C146.093 14.0587 146.786 13.92 147.746 13.92C148.685 13.92 149.325 14.0373 149.666 14.272C150.008 14.5067 150.317 14.8053 150.594 15.168L158.594 25.92V16.736C158.594 16.2667 158.637 15.8187 158.722 15.392C158.829 14.9653 159.085 14.6133 159.49 14.336C159.896 14.0587 160.578 13.92 161.538 13.92C162.52 13.92 163.202 14.0693 163.586 14.368C163.992 14.6453 164.237 15.008 164.322 15.456C164.408 15.904 164.45 16.3733 164.45 16.864V33.376C164.45 33.8453 164.408 34.304 164.322 34.752C164.237 35.2 163.992 35.5733 163.586 35.872C163.181 36.1493 162.488 36.288 161.506 36.288C160.781 36.288 160.226 36.224 159.842 36.096C159.48 35.9893 159.17 35.7653 158.914 35.424L150.626 24.48V33.376C150.626 33.8453 150.584 34.304 150.498 34.752C150.413 35.2 150.168 35.5733 149.762 35.872C149.357 36.1493 148.664 36.288 147.682 36.288ZM169.152 36.256C168.234 36.256 167.573 36.1173 167.168 35.84C166.762 35.5627 166.506 35.2 166.4 34.752C166.293 34.304 166.24 33.824 166.24 33.312V16.768C166.24 16.2987 166.282 15.84 166.368 15.392C166.453 14.944 166.698 14.5813 167.104 14.304C167.509 14.0053 168.202 13.8667 169.184 13.888H174.688C176.202 13.888 177.632 14.176 178.976 14.752C180.32 15.328 181.504 16.128 182.528 17.152C183.573 18.1547 184.384 19.328 184.96 20.672C185.557 22.016 185.856 23.4453 185.856 24.96C185.856 26.5173 185.557 27.9787 184.96 29.344C184.384 30.7093 183.573 31.9147 182.528 32.96C181.504 33.984 180.309 34.7947 178.944 35.392C177.6 35.968 176.149 36.256 174.592 36.256H169.152ZM172.096 30.4H174.688C175.648 30.4 176.533 30.1653 177.344 29.696C178.154 29.2053 178.794 28.5653 179.264 27.776C179.754 26.9653 180 26.0693 180 25.088C180 24.1067 179.754 23.2107 179.264 22.4C178.794 21.5893 178.154 20.9493 177.344 20.48C176.533 19.9893 175.637 19.744 174.656 19.744H172.096V30.4Z" fill="url(#paint1_linear_162_1012)"/>
<defs>
<linearGradient id="paint0_linear_162_1012" x1="93" y1="49" x2="93" y2="-3.87382e-06" gradientUnits="userSpaceOnUse">
<stop stop-color="#1003CC"/>
<stop offset="0.63" stop-color="#01A7FC"/>
</linearGradient>
<linearGradient id="paint1_linear_162_1012" x1="93" y1="49" x2="93" y2="-3.87382e-06" gradientUnits="userSpaceOnUse">
<stop stop-color="#1003CC"/>
<stop offset="0.63" stop-color="#01A7FC"/>
</linearGradient>
</defs>
</svg>
